<svg width="54" height="76" viewBox="0 0 54 76" fill="none" xmlns="http://www.w3.org/2000/svg">
<g filter="url(#filter0_d_568_3568)">
<mask id="path-1-outside-1_568_3568" maskUnits="userSpaceOnUse" x="4" y="0" width="46" height="68" fill="black">
<rect fill="white" x="4" width="46" height="68"/>
<path d="M5.43218 41.536C5.43218 39.5745 5.93182 37.6407 6.9311 35.7346C7.93038 33.8101 9.36454 32.0521 11.2336 30.4606C13.1026 28.8692 15.3325 27.6016 17.9232 26.6578L18.8392 13.917C17.4883 13.1583 16.23 12.3811 15.0641 11.5853C13.9168 10.7711 12.9083 9.98463 12.0385 9.22592C11.1688 8.4672 10.4934 7.77326 10.0122 7.14408C9.30902 6.21882 8.95742 5.31206 8.95742 4.42381C8.95742 3.57257 9.2535 2.86937 9.84567 2.31422C10.4378 1.75906 11.2243 1.48148 12.2051 1.48148H41.7949C42.7572 1.48148 43.5344 1.75906 44.1266 2.31422C44.7373 2.86937 45.0426 3.57257 45.0426 4.42381C45.0426 5.31206 44.6817 6.21882 43.96 7.14408C43.4789 7.77326 42.8035 8.4672 41.9337 9.22592C41.064 9.98463 40.0462 10.7618 38.8804 11.5576C37.733 12.3533 36.4839 13.1398 35.133 13.917L36.0491 26.6578C38.6398 27.6016 40.8697 28.8692 42.7387 30.4606C44.6077 32.0521 46.0419 33.8101 47.0412 35.7346C48.0404 37.6407 48.5401 39.5745 48.5401 41.536C48.5401 42.7204 48.17 43.6734 47.4298 44.3951C46.7081 45.0983 45.718 45.4499 44.4597 45.4499H29.4427V58.4128C29.4427 59.4676 29.3502 60.4669 29.1651 61.4106C28.9801 62.3544 28.7487 63.1779 28.4712 63.8811C28.1936 64.6028 27.916 65.1672 27.6384 65.5743C27.3794 65.9814 27.1666 66.185 27 66.185C26.815 66.185 26.5836 65.9814 26.3061 65.5743C26.047 65.1672 25.7787 64.6028 25.5011 63.8811C25.2235 63.1779 24.9922 62.3544 24.8071 61.4106C24.6221 60.4669 24.5296 59.4676 24.5296 58.4128V45.4499H9.51258C8.27273 45.4499 7.2827 45.0983 6.54249 44.3951C5.80228 43.6734 5.43218 42.7204 5.43218 41.536Z"/>
</mask>
<path d="M5.43218 41.536C5.43218 39.5745 5.93182 37.6407 6.9311 35.7346C7.93038 33.8101 9.36454 32.0521 11.2336 30.4606C13.1026 28.8692 15.3325 27.6016 17.9232 26.6578L18.8392 13.917C17.4883 13.1583 16.23 12.3811 15.0641 11.5853C13.9168 10.7711 12.9083 9.98463 12.0385 9.22592C11.1688 8.4672 10.4934 7.77326 10.0122 7.14408C9.30902 6.21882 8.95742 5.31206 8.95742 4.42381C8.95742 3.57257 9.2535 2.86937 9.84567 2.31422C10.4378 1.75906 11.2243 1.48148 12.2051 1.48148H41.7949C42.7572 1.48148 43.5344 1.75906 44.1266 2.31422C44.7373 2.86937 45.0426 3.57257 45.0426 4.42381C45.0426 5.31206 44.6817 6.21882 43.96 7.14408C43.4789 7.77326 42.8035 8.4672 41.9337 9.22592C41.064 9.98463 40.0462 10.7618 38.8804 11.5576C37.733 12.3533 36.4839 13.1398 35.133 13.917L36.0491 26.6578C38.6398 27.6016 40.8697 28.8692 42.7387 30.4606C44.6077 32.0521 46.0419 33.8101 47.0412 35.7346C48.0404 37.6407 48.5401 39.5745 48.5401 41.536C48.5401 42.7204 48.17 43.6734 47.4298 44.3951C46.7081 45.0983 45.718 45.4499 44.4597 45.4499H29.4427V58.4128C29.4427 59.4676 29.3502 60.4669 29.1651 61.4106C28.9801 62.3544 28.7487 63.1779 28.4712 63.8811C28.1936 64.6028 27.916 65.1672 27.6384 65.5743C27.3794 65.9814 27.1666 66.185 27 66.185C26.815 66.185 26.5836 65.9814 26.3061 65.5743C26.047 65.1672 25.7787 64.6028 25.5011 63.8811C25.2235 63.1779 24.9922 62.3544 24.8071 61.4106C24.6221 60.4669 24.5296 59.4676 24.5296 58.4128V45.4499H9.51258C8.27273 45.4499 7.2827 45.0983 6.54249 44.3951C5.80228 43.6734 5.43218 42.7204 5.43218 41.536Z" fill="url(#paint0_linear_568_3568)"/>
<path d="M6.9311 35.7346L7.81677 36.199L7.8186 36.1954L6.9311 35.7346ZM11.2336 30.4606L10.5853 29.6993L11.2336 30.4606ZM17.9232 26.6578L18.2655 27.5974L18.8742 27.3757L18.9206 26.7295L17.9232 26.6578ZM18.8392 13.917L19.8366 13.9887L19.8821 13.3558L19.3289 13.0451L18.8392 13.917ZM15.0641 11.5853L14.4854 12.4008L14.4929 12.4061L14.5004 12.4113L15.0641 11.5853ZM10.0122 7.14408L9.21606 7.74916L9.21786 7.75153L10.0122 7.14408ZM9.84567 2.31422L9.16173 1.58468L9.84567 2.31422ZM44.1266 2.31422L43.4426 3.04376L43.4482 3.049L43.4539 3.05416L44.1266 2.31422ZM43.96 7.14408L43.1715 6.52902L43.1657 6.53663L43.96 7.14408ZM38.8804 11.5576L38.3166 10.7316L38.3105 10.7359L38.8804 11.5576ZM35.133 13.917L34.6344 13.0502L34.0906 13.363L34.1356 13.9887L35.133 13.917ZM36.0491 26.6578L35.0516 26.7295L35.0981 27.3757L35.7068 27.5974L36.0491 26.6578ZM47.0412 35.7346L46.1536 36.1955L46.1555 36.199L47.0412 35.7346ZM47.4298 44.3951L48.1276 45.1113L48.1279 45.1111L47.4298 44.3951ZM29.4427 45.4499V44.4499H28.4427V45.4499H29.4427ZM28.4712 63.8811L27.541 63.5139L27.5378 63.5221L28.4712 63.8811ZM27.6384 65.5743L26.8122 65.011L26.8033 65.024L26.7948 65.0374L27.6384 65.5743ZM26.3061 65.5743L25.4624 66.1112L25.4709 66.1245L25.4798 66.1376L26.3061 65.5743ZM25.5011 63.8811L26.4345 63.5221L26.4312 63.5139L25.5011 63.8811ZM24.5296 45.4499H25.5296V44.4499H24.5296V45.4499ZM6.54249 44.3951L5.84433 45.1111L5.85374 45.1201L6.54249 44.3951ZM5.43217 41.536H6.43217C6.43217 39.7515 6.88515 37.9759 7.81676 36.199L6.9311 35.7346L6.04544 35.2703C4.97849 37.3054 4.43217 39.3974 4.43217 41.536H5.43217ZM6.9311 35.7346L7.8186 36.1954C8.75097 34.3998 10.0983 32.7407 11.8819 31.222L11.2336 30.4606L10.5853 29.6993C8.63075 31.3635 7.10979 33.2204 6.0436 35.2738L6.9311 35.7346ZM11.2336 30.4606L11.8819 31.222C13.6498 29.7166 15.7729 28.5054 18.2655 27.5974L17.9232 26.6578L17.5809 25.7182C14.8921 26.6977 12.5553 28.0218 10.5853 29.6993L11.2336 30.4606ZM17.9232 26.6578L18.9206 26.7295L19.8366 13.9887L18.8392 13.917L17.8418 13.8453L16.9258 26.5861L17.9232 26.6578ZM18.8392 13.917L19.3289 13.0451C18.0009 12.2993 16.7675 11.5372 15.6279 10.7594L15.0641 11.5853L14.5004 12.4113C15.6924 13.2249 16.9757 14.0173 18.3495 14.7889L18.8392 13.917ZM15.0641 11.5853L15.6429 10.7698C14.5171 9.97091 13.5358 9.20499 12.6959 8.47235L12.0385 9.22591L11.3812 9.97948C12.2808 10.7643 13.3165 11.5713 14.4854 12.4008L15.0641 11.5853ZM12.0385 9.22591L12.6959 8.47235C11.8559 7.7396 11.2332 7.09456 10.8066 6.53663L10.0122 7.14408L9.21786 7.75153C9.75348 8.45195 10.4817 9.1948 11.3812 9.97948L12.0385 9.22591ZM10.0122 7.14408L10.8084 6.539C10.1966 5.73402 9.95742 5.03448 9.95742 4.42381H8.95742H7.95742C7.95742 5.58964 8.42145 6.70362 9.21606 7.74916L10.0122 7.14408ZM8.95742 4.42381H9.95742C9.95742 3.83384 10.1499 3.39975 10.5296 3.04376L9.84567 2.31422L9.16173 1.58468C8.35712 2.339 7.95742 3.31131 7.95742 4.42381H8.95742ZM9.84567 2.31422L10.5296 3.04376C10.8993 2.69719 11.4224 2.48148 12.2051 2.48148V1.48148V0.481483C11.0262 0.481483 9.97639 0.820933 9.16173 1.58468L9.84567 2.31422ZM12.2051 1.48148V2.48148H41.7949V1.48148V0.481483H12.2051V1.48148ZM41.7949 1.48148V2.48148C42.5533 2.48148 43.0694 2.69386 43.4426 3.04376L44.1266 2.31422L44.8105 1.58468C43.9994 0.824262 42.9611 0.481483 41.7949 0.481483V1.48148ZM44.1266 2.31422L43.4539 3.05416C43.8488 3.41313 44.0426 3.84426 44.0426 4.42381H45.0426H46.0426C46.0426 3.30088 45.6257 2.32562 44.7993 1.57428L44.1266 2.31422ZM45.0426 4.42381H44.0426C44.0426 5.02685 43.8002 5.72303 43.1715 6.52905L43.96 7.14408L44.7485 7.75911C45.5632 6.71461 46.0426 5.59728 46.0426 4.42381H45.0426ZM43.96 7.14408L43.1657 6.53663C42.739 7.09456 42.1163 7.7396 41.2763 8.47235L41.9337 9.22591L42.5911 9.97948C43.4906 9.1948 44.2188 8.45195 44.7544 7.75153L43.96 7.14408ZM41.9337 9.22591L41.2763 8.47235C40.442 9.20015 39.4567 9.95345 38.3166 10.7316L38.8804 11.5576L39.4441 12.3835C40.6357 11.5702 41.6859 10.7691 42.5911 9.97948L41.9337 9.22591ZM38.8804 11.5576L38.3105 10.7359C37.1887 11.5139 35.9636 12.2854 34.6344 13.0502L35.133 13.917L35.6317 14.7838C37.0042 13.9941 38.2774 13.1927 39.4502 12.3793L38.8804 11.5576ZM35.133 13.917L34.1356 13.9887L35.0516 26.7295L36.0491 26.6578L37.0465 26.5861L36.1305 13.8453L35.133 13.917ZM36.0491 26.6578L35.7068 27.5974C38.1994 28.5054 40.3224 29.7166 42.0904 31.222L42.7387 30.4606L43.387 29.6993C41.4169 28.0218 39.0802 26.6977 36.3913 25.7182L36.0491 26.6578ZM42.7387 30.4606L42.0904 31.222C43.8739 32.7407 45.2213 34.3998 46.1537 36.1954L47.0412 35.7346L47.9286 35.2738C46.8625 33.2204 45.3415 31.3635 43.387 29.6993L42.7387 30.4606ZM47.0412 35.7346L46.1555 36.199C47.0871 37.9759 47.5401 39.7515 47.5401 41.536H48.5401H49.5401C49.5401 39.3974 48.9938 37.3054 47.9268 35.2703L47.0412 35.7346ZM48.5401 41.536H47.5401C47.5401 42.4935 47.2502 43.1735 46.7317 43.6791L47.4298 44.3951L48.1279 45.1111C49.0897 44.1732 49.5401 42.9472 49.5401 41.536H48.5401ZM47.4298 44.3951L46.7319 43.6788C46.2407 44.1574 45.5256 44.4499 44.4597 44.4499V45.4499V46.4499C45.9105 46.4499 47.1754 46.0391 48.1276 45.1113L47.4298 44.3951ZM44.4597 45.4499V44.4499H29.4427V45.4499V46.4499H44.4597V45.4499ZM29.4427 45.4499H28.4427V58.4128H29.4427H30.4427V45.4499H29.4427ZM29.4427 58.4128H28.4427C28.4427 59.4091 28.3553 60.3436 28.1838 61.2182L29.1651 61.4106L30.1464 61.603C30.345 60.5901 30.4427 59.526 30.4427 58.4128H29.4427ZM29.1651 61.4106L28.1838 61.2182C28.0075 62.1175 27.7912 62.8801 27.541 63.5139L28.4712 63.8811L29.4013 64.2482C29.7063 63.4756 29.9527 62.5912 30.1464 61.603L29.1651 61.4106ZM28.4712 63.8811L27.5378 63.5221C27.2742 64.2076 27.029 64.693 26.8122 65.011L27.6384 65.5743L28.4647 66.1376C28.803 65.6414 29.113 64.998 29.4045 64.24L28.4712 63.8811ZM27.6384 65.5743L26.7948 65.0374C26.7425 65.1196 26.698 65.1828 26.6615 65.23C26.6243 65.2782 26.6013 65.302 26.5933 65.3097C26.5832 65.3193 26.6054 65.2953 26.6608 65.2656C26.7174 65.2352 26.8354 65.185 27 65.185V66.185V67.185C27.4778 67.185 27.814 66.9096 27.9757 66.7549C28.1652 66.5737 28.3331 66.3454 28.4821 66.1112L27.6384 65.5743ZM27 66.185V65.185C27.1394 65.185 27.2407 65.2234 27.2918 65.2484C27.3411 65.2725 27.3598 65.2917 27.3484 65.2816C27.3384 65.2728 27.3134 65.2487 27.2738 65.2013C27.2349 65.1546 27.1877 65.0922 27.1323 65.011L26.3061 65.5743L25.4798 66.1376C25.6413 66.3744 25.8227 66.6031 26.0271 66.783C26.2125 66.9462 26.5473 67.185 27 67.185V66.185ZM26.3061 65.5743L27.1497 65.0374C26.9411 64.7096 26.7005 64.214 26.4344 63.5221L25.5011 63.8811L24.5677 64.24C24.8568 64.9916 25.1528 65.6247 25.4624 66.1112L26.3061 65.5743ZM25.5011 63.8811L26.4312 63.5139C26.1811 62.8801 25.9648 62.1175 25.7885 61.2182L24.8071 61.4106L23.8258 61.603C24.0196 62.5912 24.266 63.4756 24.5709 64.2482L25.5011 63.8811ZM24.8071 61.4106L25.7885 61.2182C25.617 60.3436 25.5296 59.4091 25.5296 58.4128H24.5296H23.5296C23.5296 59.526 23.6272 60.5901 23.8258 61.603L24.8071 61.4106ZM24.5296 58.4128H25.5296V45.4499H24.5296H23.5296V58.4128H24.5296ZM24.5296 45.4499V44.4499H9.51258V45.4499V46.4499H24.5296V45.4499ZM9.51258 45.4499V44.4499C8.47094 44.4499 7.74734 44.1604 7.23124 43.6701L6.54249 44.3951L5.85374 45.1201C6.81806 46.0362 8.07452 46.4499 9.51258 46.4499V45.4499ZM6.54249 44.3951L7.24059 43.6791C6.72205 43.1735 6.43217 42.4935 6.43217 41.536H5.43217H4.43217C4.43217 42.9472 4.88251 44.1732 5.84439 45.1111L6.54249 44.3951Z" fill="url(#paint1_linear_568_3568)" mask="url(#path-1-outside-1_568_3568)"/>
<path d="M6.9311 35.7346L7.81677 36.199L7.8186 36.1954L6.9311 35.7346ZM11.2336 30.4606L10.5853 29.6993L11.2336 30.4606ZM17.9232 26.6578L18.2655 27.5974L18.8742 27.3757L18.9206 26.7295L17.9232 26.6578ZM18.8392 13.917L19.8366 13.9887L19.8821 13.3558L19.3289 13.0451L18.8392 13.917ZM15.0641 11.5853L14.4854 12.4008L14.4929 12.4061L14.5004 12.4113L15.0641 11.5853ZM10.0122 7.14408L9.21606 7.74916L9.21786 7.75153L10.0122 7.14408ZM9.84567 2.31422L9.16173 1.58468L9.84567 2.31422ZM44.1266 2.31422L43.4426 3.04376L43.4482 3.049L43.4539 3.05416L44.1266 2.31422ZM43.96 7.14408L43.1715 6.52902L43.1657 6.53663L43.96 7.14408ZM38.8804 11.5576L38.3166 10.7316L38.3105 10.7359L38.8804 11.5576ZM35.133 13.917L34.6344 13.0502L34.0906 13.363L34.1356 13.9887L35.133 13.917ZM36.0491 26.6578L35.0516 26.7295L35.0981 27.3757L35.7068 27.5974L36.0491 26.6578ZM47.0412 35.7346L46.1536 36.1955L46.1555 36.199L47.0412 35.7346ZM47.4298 44.3951L48.1276 45.1113L48.1279 45.1111L47.4298 44.3951ZM29.4427 45.4499V44.4499H28.4427V45.4499H29.4427ZM28.4712 63.8811L27.541 63.5139L27.5378 63.5221L28.4712 63.8811ZM27.6384 65.5743L26.8122 65.011L26.8033 65.024L26.7948 65.0374L27.6384 65.5743ZM26.3061 65.5743L25.4624 66.1112L25.4709 66.1245L25.4798 66.1376L26.3061 65.5743ZM25.5011 63.8811L26.4345 63.5221L26.4312 63.5139L25.5011 63.8811ZM24.5296 45.4499H25.5296V44.4499H24.5296V45.4499ZM6.54249 44.3951L5.84433 45.1111L5.85374 45.1201L6.54249 44.3951ZM5.43217 41.536H6.43217C6.43217 39.7515 6.88515 37.9759 7.81676 36.199L6.9311 35.7346L6.04544 35.2703C4.97849 37.3054 4.43217 39.3974 4.43217 41.536H5.43217ZM6.9311 35.7346L7.8186 36.1954C8.75097 34.3998 10.0983 32.7407 11.8819 31.222L11.2336 30.4606L10.5853 29.6993C8.63075 31.3635 7.10979 33.2204 6.0436 35.2738L6.9311 35.7346ZM11.2336 30.4606L11.8819 31.222C13.6498 29.7166 15.7729 28.5054 18.2655 27.5974L17.9232 26.6578L17.5809 25.7182C14.8921 26.6977 12.5553 28.0218 10.5853 29.6993L11.2336 30.4606ZM17.9232 26.6578L18.9206 26.7295L19.8366 13.9887L18.8392 13.917L17.8418 13.8453L16.9258 26.5861L17.9232 26.6578ZM18.8392 13.917L19.3289 13.0451C18.0009 12.2993 16.7675 11.5372 15.6279 10.7594L15.0641 11.5853L14.5004 12.4113C15.6924 13.2249 16.9757 14.0173 18.3495 14.7889L18.8392 13.917ZM15.0641 11.5853L15.6429 10.7698C14.5171 9.97091 13.5358 9.20499 12.6959 8.47235L12.0385 9.22591L11.3812 9.97948C12.2808 10.7643 13.3165 11.5713 14.4854 12.4008L15.0641 11.5853ZM12.0385 9.22591L12.6959 8.47235C11.8559 7.7396 11.2332 7.09456 10.8066 6.53663L10.0122 7.14408L9.21786 7.75153C9.75348 8.45195 10.4817 9.1948 11.3812 9.97948L12.0385 9.22591ZM10.0122 7.14408L10.8084 6.539C10.1966 5.73402 9.95742 5.03448 9.95742 4.42381H8.95742H7.95742C7.95742 5.58964 8.42145 6.70362 9.21606 7.74916L10.0122 7.14408ZM8.95742 4.42381H9.95742C9.95742 3.83384 10.1499 3.39975 10.5296 3.04376L9.84567 2.31422L9.16173 1.58468C8.35712 2.339 7.95742 3.31131 7.95742 4.42381H8.95742ZM9.84567 2.31422L10.5296 3.04376C10.8993 2.69719 11.4224 2.48148 12.2051 2.48148V1.48148V0.481483C11.0262 0.481483 9.97639 0.820933 9.16173 1.58468L9.84567 2.31422ZM12.2051 1.48148V2.48148H41.7949V1.48148V0.481483H12.2051V1.48148ZM41.7949 1.48148V2.48148C42.5533 2.48148 43.0694 2.69386 43.4426 3.04376L44.1266 2.31422L44.8105 1.58468C43.9994 0.824262 42.9611 0.481483 41.7949 0.481483V1.48148ZM44.1266 2.31422L43.4539 3.05416C43.8488 3.41313 44.0426 3.84426 44.0426 4.42381H45.0426H46.0426C46.0426 3.30088 45.6257 2.32562 44.7993 1.57428L44.1266 2.31422ZM45.0426 4.42381H44.0426C44.0426 5.02685 43.8002 5.72303 43.1715 6.52905L43.96 7.14408L44.7485 7.75911C45.5632 6.71461 46.0426 5.59728 46.0426 4.42381H45.0426ZM43.96 7.14408L43.1657 6.53663C42.739 7.09456 42.1163 7.7396 41.2763 8.47235L41.9337 9.22591L42.5911 9.97948C43.4906 9.1948 44.2188 8.45195 44.7544 7.75153L43.96 7.14408ZM41.9337 9.22591L41.2763 8.47235C40.442 9.20015 39.4567 9.95345 38.3166 10.7316L38.8804 11.5576L39.4441 12.3835C40.6357 11.5702 41.6859 10.7691 42.5911 9.97948L41.9337 9.22591ZM38.8804 11.5576L38.3105 10.7359C37.1887 11.5139 35.9636 12.2854 34.6344 13.0502L35.133 13.917L35.6317 14.7838C37.0042 13.9941 38.2774 13.1927 39.4502 12.3793L38.8804 11.5576ZM35.133 13.917L34.1356 13.9887L35.0516 26.7295L36.0491 26.6578L37.0465 26.5861L36.1305 13.8453L35.133 13.917ZM36.0491 26.6578L35.7068 27.5974C38.1994 28.5054 40.3224 29.7166 42.0904 31.222L42.7387 30.4606L43.387 29.6993C41.4169 28.0218 39.0802 26.6977 36.3913 25.7182L36.0491 26.6578ZM42.7387 30.4606L42.0904 31.222C43.8739 32.7407 45.2213 34.3998 46.1537 36.1954L47.0412 35.7346L47.9286 35.2738C46.8625 33.2204 45.3415 31.3635 43.387 29.6993L42.7387 30.4606ZM47.0412 35.7346L46.1555 36.199C47.0871 37.9759 47.5401 39.7515 47.5401 41.536H48.5401H49.5401C49.5401 39.3974 48.9938 37.3054 47.9268 35.2703L47.0412 35.7346ZM48.5401 41.536H47.5401C47.5401 42.4935 47.2502 43.1735 46.7317 43.6791L47.4298 44.3951L48.1279 45.1111C49.0897 44.1732 49.5401 42.9472 49.5401 41.536H48.5401ZM47.4298 44.3951L46.7319 43.6788C46.2407 44.1574 45.5256 44.4499 44.4597 44.4499V45.4499V46.4499C45.9105 46.4499 47.1754 46.0391 48.1276 45.1113L47.4298 44.3951ZM44.4597 45.4499V44.4499H29.4427V45.4499V46.4499H44.4597V45.4499ZM29.4427 45.4499H28.4427V58.4128H29.4427H30.4427V45.4499H29.4427ZM29.4427 58.4128H28.4427C28.4427 59.4091 28.3553 60.3436 28.1838 61.2182L29.1651 61.4106L30.1464 61.603C30.345 60.5901 30.4427 59.526 30.4427 58.4128H29.4427ZM29.1651 61.4106L28.1838 61.2182C28.0075 62.1175 27.7912 62.8801 27.541 63.5139L28.4712 63.8811L29.4013 64.2482C29.7063 63.4756 29.9527 62.5912 30.1464 61.603L29.1651 61.4106ZM28.4712 63.8811L27.5378 63.5221C27.2742 64.2076 27.029 64.693 26.8122 65.011L27.6384 65.5743L28.4647 66.1376C28.803 65.6414 29.113 64.998 29.4045 64.24L28.4712 63.8811ZM27.6384 65.5743L26.7948 65.0374C26.7425 65.1196 26.698 65.1828 26.6615 65.23C26.6243 65.2782 26.6013 65.302 26.5933 65.3097C26.5832 65.3193 26.6054 65.2953 26.6608 65.2656C26.7174 65.2352 26.8354 65.185 27 65.185V66.185V67.185C27.4778 67.185 27.814 66.9096 27.9757 66.7549C28.1652 66.5737 28.3331 66.3454 28.4821 66.1112L27.6384 65.5743ZM27 66.185V65.185C27.1394 65.185 27.2407 65.2234 27.2918 65.2484C27.3411 65.2725 27.3598 65.2917 27.3484 65.2816C27.3384 65.2728 27.3134 65.2487 27.2738 65.2013C27.2349 65.1546 27.1877 65.0922 27.1323 65.011L26.3061 65.5743L25.4798 66.1376C25.6413 66.3744 25.8227 66.6031 26.0271 66.783C26.2125 66.9462 26.5473 67.185 27 67.185V66.185ZM26.3061 65.5743L27.1497 65.0374C26.9411 64.7096 26.7005 64.214 26.4344 63.5221L25.5011 63.8811L24.5677 64.24C24.8568 64.9916 25.1528 65.6247 25.4624 66.1112L26.3061 65.5743ZM25.5011 63.8811L26.4312 63.5139C26.1811 62.8801 25.9648 62.1175 25.7885 61.2182L24.8071 61.4106L23.8258 61.603C24.0196 62.5912 24.266 63.4756 24.5709 64.2482L25.5011 63.8811ZM24.8071 61.4106L25.7885 61.2182C25.617 60.3436 25.5296 59.4091 25.5296 58.4128H24.5296H23.5296C23.5296 59.526 23.6272 60.5901 23.8258 61.603L24.8071 61.4106ZM24.5296 58.4128H25.5296V45.4499H24.5296H23.5296V58.4128H24.5296ZM24.5296 45.4499V44.4499H9.51258V45.4499V46.4499H24.5296V45.4499ZM9.51258 45.4499V44.4499C8.47094 44.4499 7.74734 44.1604 7.23124 43.6701L6.54249 44.3951L5.85374 45.1201C6.81806 46.0362 8.07452 46.4499 9.51258 46.4499V45.4499ZM6.54249 44.3951L7.24059 43.6791C6.72205 43.1735 6.43217 42.4935 6.43217 41.536H5.43217H4.43217C4.43217 42.9472 4.88251 44.1732 5.84439 45.1111L6.54249 44.3951Z" fill="#FDF6EF" mask="url(#path-1-outside-1_568_3568)"/>
</g>
<defs>
<filter id="filter0_d_568_3568" x="0.432617" y="0.481483" width="53.1074" height="74.7035" filterUnits="userSpaceOnUse" color-interpolation-filters="sRGB">
<feFlood flood-opacity="0" result="BackgroundImageFix"/>
<feColorMatrix in="SourceAlpha" type="matrix" values="0 0 0 0 0 0 0 0 0 0 0 0 0 0 0 0 0 0 127 0" result="hardAlpha"/>
<feOffset dy="4"/>
<feGaussianBlur stdDeviation="2"/>
<feComposite in2="hardAlpha" operator="out"/>
<feColorMatrix type="matrix" values="0 0 0 0 0.772549 0 0 0 0 0.262745 0 0 0 0 0.00784314 0 0 0 0.26 0"/>
<feBlend mode="normal" in2="BackgroundImageFix" result="effect1_dropShadow_568_3568"/>
<feBlend mode="normal" in="SourceGraphic" in2="effect1_dropShadow_568_3568" result="shape"/>
</filter>
<linearGradient id="paint0_linear_568_3568" x1="27" y1="-1" x2="27" y2="92" gradientUnits="userSpaceOnUse">
<stop stop-color="#C54302"/>
<stop offset="1" stop-color="#5F2001"/>
</linearGradient>
<linearGradient id="paint1_linear_568_3568" x1="27" y1="-1" x2="27" y2="67" gradientUnits="userSpaceOnUse">
<stop stop-color="#C54302"/>
<stop offset="1" stop-color="#5F2001"/>
</linearGradient>
</defs>
</svg>
